<?xml version="1.0" encoding="utf-8"?>
<!-- Generator: Adobe Illustrator 17.0.0, SVG Export Plug-In . SVG Version: 6.00 Build 0)  -->
<!DOCTYPE svg PUBLIC "-//W3C//DTD SVG 1.1//EN" "http://www.w3.org/Graphics/SVG/1.1/DTD/svg11.dtd">
<svg version="1.1" id="Layer_1" xmlns="http://www.w3.org/2000/svg" xmlns:xlink="http://www.w3.org/1999/xlink" x="0px" y="0px"
	 width="133px" height="47px" viewBox="0 0 133 47" enable-background="new 0 0 133 47" xml:space="preserve">
<g>
	<path fill="#999999" d="M127.357,30.978c-4.394,0-8.372-3.427-9.528-9.306l3.561-0.279l10.869-4.398
		c-0.322-1.066-0.924-3.056-3.236-4.584c-1.388-0.88-3.1-1.298-4.764-1.298c-4.764,0-10.593,3.519-10.593,10.696
		c0,3.473,1.434,7.457,4.717,9.771c2.359,1.713,4.673,1.806,6.152,1.806c1.387,0,2.96-0.185,4.487-0.879
		c0.508-0.232,1.017-0.556,1.526-0.833L133,29.358C131.428,30.146,129.716,30.978,127.357,30.978z M117.644,19.078
		c0-5.001,3.467-6.436,5.319-6.436c2.498,0,4.58,2.13,4.58,3.982c0,0.65-0.464,0.926-1.341,1.251l-8.419,3.657
		C117.736,20.7,117.644,19.865,117.644,19.078z"/>
	<path fill="#999999" d="M110.058,29.219V18.522c0-6.575,0.046-12.224,0.417-15.789c0.184-1.621,0.646-1.899,2.08-2.733h-6.612
		l-3.47,1.667h3.608c-0.047,2.13-0.231,5.093-0.278,7.456c-0.139,4.815-0.184,9.955-0.184,13.567v7.548
		c0,0.925-0.186,1.065-1.249,2.455h8.186l1.713-1.019c-0.785-0.092-1.572-0.138-2.358-0.231
		C110.382,31.302,110.058,31.024,110.058,29.219z"/>
	<path fill="#999999" d="M103.212,11.716h-9.527c-2.497,0-5.642,0.369-8.279,2.546c-1.99,1.714-2.961,4.076-2.961,6.205
		c0,3.612,2.776,7.272,7.678,7.272c0.464,0,0.971-0.046,1.48-0.093c-0.23,0.556-0.462,1.017-0.462,1.806
		c0,1.435,0.74,2.314,1.387,3.148c-2.081,0.14-5.966,0.372-8.833,2.129c-2.731,1.622-3.563,3.984-3.563,5.651
		c0,3.427,3.238,6.622,9.944,6.622c7.956,0,12.165-4.399,12.165-8.751c0-3.195-1.849-4.772-3.885-6.484l-1.664-1.296
		c-0.509-0.418-1.203-0.972-1.203-1.992c0-1.016,0.694-1.665,1.295-2.268c1.942-1.527,3.885-3.148,3.885-6.575
		c0-3.519-2.221-5.373-3.283-6.251h2.866L103.212,11.716z M99.143,40.055c0,2.869-2.359,4.999-6.799,4.999
		c-4.95,0-8.141-2.361-8.141-5.648c0-3.288,2.96-4.399,3.977-4.769c1.943-0.649,4.442-0.742,4.858-0.742
		c0.461,0,0.693,0,1.063,0.047C97.617,36.443,99.143,37.692,99.143,40.055z M95.445,25.144c-0.742,0.74-1.991,1.296-3.147,1.296
		c-3.978,0-5.782-5.139-5.782-8.241c0-1.204,0.232-2.456,1.017-3.427c0.741-0.926,2.037-1.529,3.238-1.529
		c3.839,0,5.829,5.188,5.829,8.521C96.6,22.597,96.507,24.079,95.445,25.144z"/>
	<path fill="#999999" d="M69.402,11.113c-7.029,0-11.979,5.187-11.979,11.253c0,5.185,3.932,10.926,11.286,10.926
		c7.539,0,11.749-5.787,11.749-11.25C80.458,16.438,76.201,11.113,69.402,11.113z M74.491,29.543
		c-1.065,1.481-2.915,2.361-4.72,2.361c-5.595,0-7.861-7.548-7.861-12.132c0-1.992,0.324-4.029,2.126-5.649
		c1.11-0.972,2.638-1.574,4.162-1.574c5.736,0,7.68,7.778,7.68,11.854C75.878,26.209,75.6,28.061,74.491,29.543z"/>
	<path fill="#999999" d="M44.796,11.113c-7.031,0-11.979,5.187-11.979,11.253c0,5.185,3.93,10.926,11.286,10.926
		c7.538,0,11.748-5.787,11.748-11.25C55.851,16.438,51.595,11.113,44.796,11.113z M49.884,29.543
		c-1.064,1.481-2.914,2.361-4.718,2.361c-5.597,0-7.864-7.548-7.864-12.132c0-1.992,0.324-4.029,2.128-5.649
		c1.11-0.972,2.636-1.574,4.163-1.574c5.735,0,7.678,7.778,7.678,11.854C51.271,26.209,50.994,28.061,49.884,29.543z"/>
	<path fill="#999999" d="M18.861,24.385l6.548-0.347v6.989c-1.301,0.52-2.731,1.086-5.508,1.086
		c-9.451,0-15.349-7.684-15.349-15.844c0-7.598,5.159-12.807,12.011-12.807c5.117,0,7.805,2.648,9.28,4.079l-1.084,1.738
		l1.518-0.349l3.599-3.428c-0.954-0.653-2.472-1.781-5.724-2.693c-2.039-0.563-4.292-0.911-6.634-0.911
		C6.461,1.897,0,9.711,0,18.133c0,6.902,4.553,15.715,16.519,15.715c2.385,0,4.64-0.347,7.155-0.738l6.201-1.431v-5.297
		c0-0.434,0.043-1.693,0.087-2.084c0.087-0.347,0.129-0.435,0.433-0.695l1.127-1.085h-9.193L18.861,24.385z"/>
</g>
</svg>
