<?xml version="1.0" encoding="utf-8"?>
<!-- Generator: Adobe Illustrator 17.0.0, SVG Export Plug-In . SVG Version: 6.00 Build 0)  -->
<!DOCTYPE svg PUBLIC "-//W3C//DTD SVG 1.1//EN" "http://www.w3.org/Graphics/SVG/1.1/DTD/svg11.dtd">
<svg version="1.1" id="Layer_1" xmlns="http://www.w3.org/2000/svg" xmlns:xlink="http://www.w3.org/1999/xlink" x="0px" y="0px"
	 width="142px" height="29px" viewBox="0 0 142 29" enable-background="new 0 0 142 29" xml:space="preserve">
<g>
	<path fill="#999999" d="M11.683,10.734c-0.156-0.043-0.309-0.096-0.501-0.157l0.11-0.098c0.147-0.068,0.294-0.132,0.441-0.198
		c1.838-0.838,2.869-2.253,2.897-4.315c0.029-2.109-0.864-3.695-2.764-4.641c-1.207-0.605-2.499-0.795-3.83-0.797
		C5.356,0.522,2.678,0.517,0,0.513v21.364c2.539-0.01,5.079-0.005,7.618-0.038c1.983-0.026,3.931-0.277,5.621-1.447
		c1.904-1.32,2.524-3.238,2.206-5.463C15.127,12.716,13.81,11.329,11.683,10.734z M3.783,3.778c0.223,0.008,0.447,0.011,0.67,0.011
		c0.304,0,0.61-0.006,0.913-0.011c0.309-0.006,0.618-0.012,0.925-0.012c0.939,0,1.87,0.055,2.789,0.329
		c1.209,0.361,1.764,1.133,1.788,2.355c0.022,1.167-0.56,2.026-1.725,2.415c-0.519,0.174-1.077,0.288-1.62,0.309
		C7.016,9.191,6.51,9.197,5.998,9.197c-0.721,0-1.454-0.011-2.215-0.011V3.778z M10.827,17.631c-0.41,0.317-0.923,0.633-1.416,0.681
		c-1.851,0.184-3.713,0.256-5.638,0.372v-6.224c0.247,0.01,0.494,0.014,0.741,0.014c0.404,0,0.807-0.01,1.209-0.02
		c0.406-0.01,0.811-0.02,1.216-0.02c1.039,0,2.071,0.069,3.092,0.384c0.969,0.3,1.552,0.992,1.69,2.022
		C11.866,15.909,11.738,16.931,10.827,17.631z"/>
	<path fill="#999999" d="M141.988,8.112c0-0.226-0.022-0.451-0.033-0.67h-3.355v1.992c-1.572-1.614-3.367-2.443-5.185-2.443
		c-1.065,0.001-2.136,0.284-3.177,0.86c-2.803,1.554-3.734,4.172-3.603,7.224c0.176,4.089,3.209,6.947,6.969,6.947
		c0.487,0,0.987-0.049,1.495-0.148c1.251-0.247,2.315-0.85,3.295-1.763c-0.009,0.977-0.03,1.933-0.23,2.847
		c-0.336,1.527-1.367,2.408-2.865,2.696c-0.483,0.093-0.957,0.141-1.421,0.141c-1.441,0-2.786-0.455-4.018-1.39
		c-0.274-0.206-0.543-0.422-0.858-0.67c-0.715,0.986-1.406,1.939-2.131,2.939c0.344,0.266,0.619,0.516,0.926,0.711
		c1.849,1.176,3.791,1.695,5.793,1.695c1.142,0,2.305-0.169,3.478-0.481c2.184-0.583,3.671-2.073,4.334-4.259
		c0.334-1.103,0.545-2.289,0.562-3.442C142.028,16.636,141.989,12.374,141.988,8.112z M134.397,18.762h-0.025
		c-2.367-0.013-4.179-1.843-4.179-4.222c0-2.5,1.717-4.24,4.184-4.244h0.006c2.545,0,4.232,1.702,4.217,4.256
		C138.583,17.026,136.849,18.762,134.397,18.762z"/>
	<path fill="#999999" d="M80.377,10.51c-0.387-1.367-1.144-2.451-2.465-3.043c-0.745-0.334-1.522-0.495-2.285-0.495
		c-1.739,0-3.411,0.835-4.497,2.36c-0.063,0.088-0.081,0.21-0.17,0.452c-0.977-2.093-2.531-2.732-4.417-2.756
		c-0.03,0-0.058-0.001-0.087-0.001c-1.84,0-3.323,0.721-4.433,2.336v-1.94h-3.331v14.37h3.542v-0.808
		c0-2.344-0.038-4.686,0.021-7.027c0.019-0.725,0.188-1.499,0.49-2.154c0.455-0.984,1.495-1.527,2.624-1.527
		c0.25,0,0.506,0.026,0.76,0.081c1.053,0.228,1.623,1.031,1.754,2.477c0.024,0.256,0.023,0.515,0.024,0.772
		c0.001,2.484-0.001,4.966,0.002,7.449c0,0.247,0.028,0.493,0.042,0.741h3.512v-0.811c-0.002-2.203-0.046-4.406,0.019-6.606
		c0.025-0.848,0.17-1.739,0.482-2.518c0.415-1.037,1.371-1.577,2.501-1.577c0.244,0,0.496,0.024,0.752,0.076
		c1.062,0.206,1.74,1.063,1.874,2.397c0.047,0.465,0.057,0.935,0.057,1.403c0.006,2.296,0.002,4.591,0.005,6.888
		c0,0.249,0.022,0.498,0.034,0.731h3.488c0-3.296,0.013-6.526-0.013-9.756C80.659,11.517,80.515,11.002,80.377,10.51z"/>
	<path fill="#999999" d="M94.347,7.424c-0.845-0.28-1.672-0.43-2.471-0.43c-1.632,0-3.15,0.623-4.47,2.027
		c-0.033,0.036-0.115,0.025-0.238,0.049V0.093h-3.516v21.705h3.361v-1.865c0.684,0.547,1.273,1.165,1.982,1.56
		c0.88,0.49,1.929,0.724,2.994,0.724c1.642,0,3.325-0.557,4.489-1.6c2.258-2.023,2.827-4.657,2.364-7.54
		C98.406,10.371,96.991,8.302,94.347,7.424z M91.232,18.933h-0.007c-2.401-0.002-4.187-1.881-4.163-4.381
		c0.023-2.439,1.803-4.256,4.154-4.256c0.019,0,0.038,0,0.058,0c2.397,0.033,4.147,1.87,4.131,4.34
		C95.391,17.094,93.606,18.933,91.232,18.933z"/>
	<path fill="#999999" d="M32.813,7.129c-0.472-0.061-0.935-0.092-1.387-0.092c-2.63,0.001-4.879,1.051-6.409,3.513
		c-1.561,2.513-1.58,5.226-0.181,7.822c1.446,2.68,3.882,3.737,6.456,3.823c2.462-0.017,4.375-0.625,5.894-2.157
		c2.238-2.258,2.734-5.009,1.781-7.97C38.014,9.101,35.805,7.509,32.813,7.129z M31.629,18.933h-0.007
		c-2.397-0.003-4.176-1.881-4.158-4.391c0.018-2.428,1.808-4.246,4.172-4.246c0.018,0,0.036,0,0.054,0
		c2.392,0.028,4.125,1.863,4.11,4.35C35.783,17.12,34.018,18.933,31.629,18.933z"/>
	<path fill="#999999" d="M48.739,7.026h-0.031c-4.475,0.014-7.741,3.23-7.724,7.612c0.017,4.385,3.27,7.546,7.768,7.546h0.01
		c4.483-0.004,7.744-3.214,7.718-7.601C56.454,10.195,53.206,7.026,48.739,7.026z M48.754,18.934h-0.019
		c-2.367,0-4.166-1.843-4.18-4.285c-0.015-2.484,1.78-4.352,4.179-4.352h0.016c2.382,0.009,4.145,1.837,4.162,4.315
		C52.927,17.046,51.121,18.925,48.754,18.934z"/>
	<path fill="#999999" d="M108.315,7.039c-0.364,0-0.74,0.022-1.127,0.068c-3.743,0.437-6.379,3.275-6.609,7.115
		c-0.222,3.688,2.065,6.814,5.649,7.72c0.697,0.177,1.398,0.262,2.085,0.262c2.398,0,4.638-1.042,6.01-2.929
		c-0.848-0.65-1.668-1.278-2.506-1.921c-1.098,1.243-2.321,1.953-3.707,1.953c-0.608,0-1.247-0.136-1.921-0.424
		c-1.206-0.515-2.006-1.833-1.922-3.043h10.714c0.078-1.735-0.038-3.353-0.68-4.898C113.244,8.395,111.143,7.039,108.315,7.039z
		 M104.225,13.103c0.119-2.035,1.576-3.345,3.661-3.345c0.064,0,0.13,0.001,0.196,0.004c2.015,0.077,3.321,1.378,3.296,3.341
		H104.225z"/>
	<path fill="#999999" d="M17.936,0.937c-0.001,6.695-0.001,13.389-0.001,20.086c0,0.14-0.043,0.303,0.013,0.415
		c0.076,0.156,0.226,0.383,0.348,0.385c0.571,0.017,1.141,0.021,1.713,0.021c0.484,0,0.968-0.003,1.453-0.003V0.081h-3.526V0.937z"
		/>
	<path fill="#999999" d="M125.374,7.02c-0.105,0-0.221,0.002-0.348,0.006c-0.091,0.003-0.184,0.01-0.276,0.018
		c-1.638,0.143-2.867,0.952-3.87,2.331V7.444h-3.508V21.79h3.526c0-2.463,0.001-4.872,0-7.281c-0.001-2.494,1.478-4.053,3.703-4.053
		c0.312,0,0.639,0.031,0.979,0.094c0.262,0.05,0.524,0.098,0.86,0.16V8.386C126.439,7.222,126.348,7.02,125.374,7.02z"/>
</g>
</svg>
