<?xml version="1.0" encoding="utf-8"?>
<!-- Generator: Adobe Illustrator 17.0.0, SVG Export Plug-In . SVG Version: 6.00 Build 0)  -->
<!DOCTYPE svg PUBLIC "-//W3C//DTD SVG 1.1//EN" "http://www.w3.org/Graphics/SVG/1.1/DTD/svg11.dtd">
<svg version="1.1" id="Layer_1" xmlns="http://www.w3.org/2000/svg" xmlns:xlink="http://www.w3.org/1999/xlink" x="0px" y="0px"
	 width="198px" height="57px" viewBox="0 0 198 57" enable-background="new 0 0 198 57" xml:space="preserve">
<g>
	<path fill="#999999" d="M46.924,6.057c-0.17-0.979-0.518-1.91-0.786-2.863c-0.038-0.132-0.09-0.246-0.24-0.278
		c-0.767-0.312-1.579-0.464-2.378-0.662c-0.367-0.08-0.735-0.161-1.102-0.242l-0.001-0.001c-0.404-0.18-0.843-0.215-1.268-0.31
		c-0.22,0.032-0.181,0.202-0.174,0.344c0.016,0.334,0.042,0.668,0.064,1c0.023,0.457-0.053,0.921,0.096,1.369
		c0.053,0.522-0.067,1.06,0.142,1.568c-0.06,0.565,0.057,1.118,0.124,1.674c0.077,0.911,0.151,1.822,0.319,2.723
		c-0.022,0.16-0.079,0.297-0.26,0.322c-0.741,0.102-1.457,0.376-2.221,0.327c-0.034-0.197-0.094-0.395-0.098-0.593
		c-0.014-0.768-0.203-1.495-0.464-2.209c-0.163-0.717-0.409-1.402-0.776-2.041c-0.186-0.53-0.482-1.001-0.794-1.463
		c-0.34-0.571-0.708-1.122-1.198-1.578c-0.655-0.858-1.5-1.487-2.427-2.015c-0.696-0.439-1.446-0.742-2.251-0.911
		c-0.32-0.128-0.655-0.142-0.993-0.123h-0.001c-0.225-0.104-0.467-0.097-0.706-0.093c-0.746,0.001-1.492,0.001-2.238,0.001
		c-0.316,0.037-0.637,0.057-0.95,0.114c-1.507,0.278-2.956,0.709-4.189,1.674c-0.57,0-1.514,1.25-1.842,1.667
		c-0.538,0.68-0.969,1.439-1.301,2.238c-1.608,3.884-1.08,8.368,1.923,11.455c0.973,1,2.077,1.872,3.189,2.711
		c2.689,2.028,5.446,3.687,8.446,5.212c4.486,2.279,8.661,5.338,10.61,10.155c0.363,0.899,0.636,1.828,0.863,2.803
		c0.262-0.184,0.304-0.438,0.398-0.653c2.698-6.226,4.195-13.125,4.025-19.926c-0.028-1.13-0.115-2.249-0.241-3.363
		C47.92,11.397,47.391,8.738,46.924,6.057z"/>
	<path fill="#999999" d="M26.177,35.524c-1.069-0.7-2.225-1.235-3.364-1.803c-0.149-0.08-0.296-0.161-0.447-0.24
		c-2.166-1.131-4.311-2.294-6.299-3.727c-2.404-1.734-4.322-3.885-5.679-6.53c-0.069-0.153-0.142-0.306-0.207-0.46
		c-0.701-1.669-1.084-3.421-1.367-5.201H8.814c-0.02-0.447-0.03-0.895-0.076-1.34c-0.002-0.151-0.011-0.303-0.05-0.453
		c0.043-1.465-0.063-2.939,0.307-4.381c0.197-1.064,0.462-2.11,0.788-3.141c0.233-0.568,0.468-1.137,0.701-1.705
		c0.413-0.716,0.827-1.43,1.24-2.145c0.195-0.354,0.408-0.696,0.689-0.989c0.703-0.731,1.364-1.504,2.132-2.17
		c0.342-0.267,0.684-0.532,1.156-0.901c-0.681-0.003-1.164,0.061-1.636,0.215h-0.001c-0.825,0.091-1.662,0.091-2.466,0.338
		L10.04,1.131c-0.494,0.12-1.012,0.122-1.488,0.323C8.113,1.54,7.674,1.627,7.235,1.714C6.281,1.887,5.341,2.123,4.407,2.384
		C3.789,2.522,3.163,2.634,2.589,2.92c-0.15,0.006-0.235,0.091-0.275,0.23c-0.224,0.777-0.543,1.53-0.654,2.34
		c-0.477,1.474-0.778,2.987-1.004,4.517c-0.279,1.564-0.552,3.129-0.557,4.725c-0.049,0.165-0.056,0.333-0.053,0.501
		c-0.042,0.452-0.049,0.906-0.044,1.36c0.002,1.012,0.003,2.025,0.005,3.038c0.002,1.781,0.162,3.55,0.453,5.307
		c0.022-0.036,0.025-0.077,0.038-0.116c0,0.005,0.001,0.009,0.001,0.013c-0.001,0.036-0.021,0.07-0.039,0.103
		c0.094,0.613,0.171,1.229,0.285,1.839c1.354,7.272,4.211,13.9,8.574,19.865c1.979,2.708,4.114,5.282,6.868,7.26
		c2.13,1.528,4.394,2.749,7.043,3.092c0.637,0.002,1.273,0.004,1.91,0.007c1.739-0.178,3.383-0.658,4.889-1.566
		c5.361-3.234,5.601-10.164,3.005-14.241C31.363,38.569,28.874,36.915,26.177,35.524z M0.116,16.781c0-0.026,0-0.051,0-0.077
		c0.006,0.023,0.014,0.046,0.021,0.068C0.13,16.775,0.123,16.778,0.116,16.781z M27.052,45.155c0-0.001-0.001-0.001-0.001-0.001
		c0-0.003,0-0.006,0.001-0.01V45.155z"/>
	<path fill="#999999" d="M67.364,25.292c1.166,0,2.093-0.294,2.781-0.883c0.688-0.588,1.032-1.41,1.032-2.466
		c0-0.908-0.282-1.68-0.845-2.316c-0.563-0.634-1.355-1.266-2.376-1.894c-0.721-0.441-1.247-0.883-1.577-1.324
		c-0.33-0.441-0.496-0.895-0.496-1.363c0-0.494,0.18-0.925,0.541-1.293c0.36-0.368,0.901-0.551,1.623-0.551
		c0.436,0,0.845,0.07,1.229,0.21c0.383,0.14,0.681,0.291,0.891,0.451l0.247-1.082c-0.224-0.147-0.546-0.291-0.965-0.431
		c-0.418-0.14-0.897-0.21-1.435-0.21c-0.568,0-1.069,0.08-1.502,0.24c-0.434,0.161-0.796,0.378-1.088,0.652
		c-0.292,0.274-0.512,0.591-0.662,0.952c-0.15,0.361-0.224,0.742-0.224,1.143c0,0.735,0.235,1.403,0.706,2.005
		c0.471,0.602,1.214,1.203,2.231,1.804c0.808,0.481,1.391,0.962,1.75,1.443c0.359,0.481,0.538,1.036,0.538,1.664
		c0,0.682-0.228,1.21-0.684,1.584c-0.456,0.374-1.035,0.561-1.738,0.561c-0.658,0-1.26-0.117-1.805-0.351
		c-0.546-0.233-1.035-0.524-1.469-0.872l0.314,1.484c0.299,0.214,0.703,0.408,1.211,0.581C66.1,25.205,66.691,25.292,67.364,25.292z
		"/>
	<rect x="76.805" y="12.321" fill="#999999" width="1.391" height="12.791"/>
	<path fill="#999999" d="M92.819,18.997c0,0.508,0,1.049,0,1.624s0.015,1.143,0.045,1.704l-0.045,0.02
		c-0.179-0.254-0.37-0.525-0.572-0.812c-0.202-0.287-0.412-0.578-0.628-0.872c-0.217-0.294-0.43-0.584-0.639-0.872
		c-0.21-0.287-0.411-0.558-0.606-0.812l-5.024-6.656h-1.009v12.791h1.346v-6.836c0-0.548-0.004-1.116-0.011-1.704
		c-0.007-0.588-0.026-1.169-0.055-1.744l0.044-0.02c0.374,0.535,0.798,1.116,1.27,1.744c0.472,0.628,0.926,1.23,1.361,1.804
		l5.329,6.957h0.54V12.321h-1.345V18.997z"/>
	<path fill="#999999" d="M105.556,25.292c0.898,0,1.69-0.111,2.378-0.332c0.688-0.221,1.271-0.546,1.75-0.976v-5.068h-4.173v1.063
		h2.871v3.485c-0.268,0.215-0.641,0.396-1.12,0.544c-0.479,0.148-1.017,0.222-1.615,0.222c-0.643,0-1.244-0.131-1.805-0.393
		c-0.561-0.261-1.054-0.633-1.48-1.116c-0.426-0.483-0.763-1.06-1.009-1.73c-0.246-0.671-0.37-1.422-0.37-2.254
		c0-0.832,0.123-1.59,0.37-2.274c0.246-0.684,0.583-1.268,1.009-1.751s0.927-0.855,1.502-1.116c0.577-0.262,1.185-0.393,1.828-0.393
		c0.614,0,1.177,0.089,1.693,0.266c0.516,0.178,0.968,0.403,1.357,0.676l0.246-1.143c-0.389-0.254-0.878-0.461-1.469-0.622
		c-0.591-0.16-1.259-0.24-2.008-0.24c-0.792,0-1.547,0.154-2.264,0.461c-0.718,0.307-1.345,0.745-1.883,1.313
		c-0.54,0.568-0.968,1.26-1.291,2.075c-0.321,0.815-0.482,1.724-0.482,2.727s0.157,1.908,0.47,2.717
		c0.315,0.809,0.741,1.5,1.279,2.075c0.538,0.575,1.169,1.016,1.895,1.324C103.96,25.138,104.735,25.292,105.556,25.292z"/>
	<path fill="#999999" d="M122.915,21.343c0,0.895-0.269,1.594-0.807,2.095c-0.539,0.501-1.301,0.752-2.288,0.752
		c-0.987,0-1.749-0.251-2.288-0.752c-0.538-0.501-0.807-1.2-0.807-2.095v-9.022h-1.39v9.122c0,0.602,0.108,1.143,0.325,1.624
		c0.217,0.481,0.519,0.885,0.908,1.213c0.389,0.328,0.856,0.579,1.402,0.752c0.546,0.174,1.155,0.261,1.827,0.261
		s1.282-0.087,1.828-0.261c0.546-0.173,1.012-0.424,1.401-0.752c0.389-0.327,0.691-0.732,0.908-1.213
		c0.217-0.481,0.326-1.023,0.326-1.624v-9.122h-1.346V21.343z"/>
	<polygon fill="#999999" points="136.73,24.049 131.504,24.049 131.504,12.321 130.114,12.321 130.114,25.112 136.73,25.112 	"/>
	<path fill="#999999" d="M145.364,12.14l-4.575,12.972h1.323l1.255-3.629h4.598l1.255,3.629h1.39l-4.597-12.972H145.364z
		 M147.584,20.48h-3.858l1.324-3.849c0.105-0.281,0.209-0.584,0.314-0.912c0.105-0.327,0.201-0.665,0.291-1.012h0.045
		c0.074,0.348,0.16,0.681,0.258,1.002c0.097,0.321,0.205,0.628,0.325,0.922L147.584,20.48z"/>
	<path fill="#999999" d="M164.248,25.112l-3.992-6.155c0.642-0.2,1.177-0.581,1.604-1.142c0.426-0.561,0.639-1.243,0.639-2.045
		c0-0.521-0.094-0.993-0.281-1.414c-0.188-0.421-0.441-0.782-0.763-1.083c-0.322-0.301-0.695-0.535-1.121-0.701
		c-0.426-0.167-0.878-0.251-1.357-0.251h-3.273v12.791h1.39v-5.894h1.817l3.812,5.894H164.248z M158.866,18.155h-1.772v-4.772h1.704
		c0.658,0,1.208,0.215,1.648,0.645c0.441,0.429,0.661,1.013,0.661,1.751c0,0.739-0.216,1.319-0.65,1.742
		C160.024,17.944,159.493,18.155,158.866,18.155z"/>
	<rect x="168.98" y="12.321" fill="#999999" width="1.39" height="12.791"/>
	<polygon fill="#999999" points="175.394,13.383 179.228,13.383 179.228,25.112 180.574,25.112 180.574,13.383 184.409,13.383 
		184.409,12.321 175.394,12.321 	"/>
	<path fill="#999999" d="M196.61,12.321l-2.333,3.829c-0.179,0.307-0.373,0.631-0.58,0.972c-0.207,0.341-0.392,0.665-0.554,0.973
		h-0.044c-0.161-0.307-0.342-0.625-0.541-0.953c-0.199-0.327-0.404-0.658-0.613-0.992l-2.31-3.829h-1.48l4.24,6.997v5.794h1.345
		v-5.814L198,12.321H196.61z"/>
	<path fill="#999999" d="M72.41,41.392c0,0.896-0.269,1.594-0.808,2.095c-0.538,0.501-1.3,0.752-2.287,0.752
		c-0.987,0-1.749-0.251-2.287-0.752s-0.808-1.199-0.808-2.095V32.37h-1.39v9.122c0,0.602,0.109,1.143,0.325,1.624
		c0.217,0.482,0.519,0.886,0.908,1.213c0.389,0.328,0.856,0.579,1.402,0.752c0.546,0.173,1.155,0.26,1.828,0.26
		c0.673,0,1.282-0.087,1.828-0.26c0.546-0.173,1.013-0.424,1.402-0.752c0.389-0.327,0.691-0.731,0.908-1.213
		c0.217-0.481,0.325-1.022,0.325-1.624V32.37H72.41V41.392z"/>
	<path fill="#999999" d="M88.311,39.046c0,0.508,0,1.049,0,1.623c0,0.576,0.015,1.143,0.045,1.704l-0.045,0.021
		c-0.179-0.254-0.37-0.525-0.572-0.813c-0.202-0.287-0.412-0.578-0.628-0.872c-0.217-0.294-0.43-0.584-0.639-0.871
		c-0.21-0.288-0.411-0.558-0.606-0.813l-5.024-6.656h-1.009v12.791h1.346v-6.837c0-0.547-0.004-1.116-0.011-1.703
		c-0.007-0.588-0.026-1.17-0.055-1.744l0.044-0.021c0.374,0.535,0.798,1.116,1.27,1.744c0.472,0.628,0.926,1.23,1.361,1.804
		l5.329,6.957h0.54V32.37h-1.345V39.046z"/>
	<rect x="96.048" y="32.37" fill="#999999" width="1.391" height="12.791"/>
	<path fill="#999999" d="M108.787,39.106c-0.18,0.522-0.359,1.073-0.539,1.654c-0.179,0.581-0.351,1.152-0.515,1.714h-0.045
		c-0.165-0.562-0.34-1.137-0.527-1.725c-0.188-0.587-0.363-1.136-0.527-1.644l-2.31-6.736h-1.435l4.463,12.931h0.605l4.441-12.931
		h-1.301L108.787,39.106z"/>
	<polygon fill="#999999" points="118.968,39.266 122.825,39.266 122.825,38.203 118.968,38.203 118.968,33.432 123.655,33.432 
		123.655,32.37 117.577,32.37 117.577,45.161 124.26,45.161 124.26,44.099 118.968,44.099 	"/>
	<path fill="#999999" d="M135.642,37.863c0.426-0.561,0.639-1.242,0.639-2.045c0-0.521-0.094-0.992-0.281-1.414
		c-0.188-0.421-0.441-0.781-0.763-1.082c-0.322-0.302-0.695-0.535-1.121-0.702s-0.878-0.251-1.357-0.251h-3.273v12.791h1.39v-5.894
		h1.817l3.812,5.894h1.525l-3.992-6.155C134.681,38.805,135.216,38.425,135.642,37.863z M132.648,38.203h-1.772v-4.771h1.704
		c0.658,0,1.208,0.215,1.648,0.644c0.441,0.43,0.661,1.014,0.661,1.752s-0.216,1.319-0.65,1.742
		C133.807,37.993,133.276,38.203,132.648,38.203z"/>
	<path fill="#999999" d="M145.822,37.782c-0.721-0.441-1.247-0.882-1.577-1.323c-0.33-0.442-0.495-0.896-0.495-1.364
		c0-0.494,0.18-0.925,0.541-1.293c0.361-0.367,0.901-0.551,1.623-0.551c0.436,0,0.846,0.07,1.229,0.21
		c0.383,0.14,0.68,0.291,0.891,0.451l0.246-1.083c-0.224-0.147-0.546-0.291-0.964-0.432c-0.419-0.14-0.898-0.21-1.435-0.21
		c-0.569,0-1.07,0.08-1.503,0.241c-0.434,0.161-0.796,0.378-1.088,0.652c-0.291,0.274-0.512,0.591-0.661,0.953
		c-0.15,0.36-0.225,0.741-0.225,1.142c0,0.735,0.236,1.404,0.707,2.005c0.471,0.601,1.214,1.203,2.231,1.804
		c0.808,0.482,1.39,0.962,1.749,1.444c0.359,0.481,0.539,1.036,0.539,1.664c0,0.681-0.229,1.209-0.684,1.583
		c-0.456,0.375-1.035,0.562-1.737,0.562c-0.659,0-1.26-0.116-1.806-0.35c-0.546-0.234-1.035-0.525-1.469-0.872l0.314,1.483
		c0.298,0.214,0.702,0.408,1.21,0.581c0.508,0.173,1.099,0.26,1.772,0.26c1.166,0,2.093-0.294,2.782-0.882
		c0.687-0.587,1.032-1.41,1.032-2.466c0-0.908-0.282-1.681-0.845-2.315C147.634,39.042,146.842,38.411,145.822,37.782z"/>
	<rect x="154.895" y="32.37" fill="#999999" width="1.39" height="12.791"/>
	<polygon fill="#999999" points="161.534,33.432 165.369,33.432 165.369,45.161 166.714,45.161 166.714,33.432 170.55,33.432 
		170.55,32.37 161.534,32.37 	"/>
	<path fill="#999999" d="M180.641,36.198c-0.179,0.308-0.373,0.632-0.58,0.973c-0.207,0.341-0.392,0.665-0.554,0.972h-0.044
		c-0.161-0.307-0.342-0.625-0.541-0.953c-0.199-0.327-0.404-0.658-0.613-0.993l-2.31-3.829h-1.48l4.24,6.997v5.794h1.345v-5.814
		l4.261-6.977h-1.39L180.641,36.198z"/>
</g>
</svg>
