<?xml version="1.0" encoding="utf-8"?>
<!-- Generator: Adobe Illustrator 17.0.0, SVG Export Plug-In . SVG Version: 6.00 Build 0)  -->
<!DOCTYPE svg PUBLIC "-//W3C//DTD SVG 1.1//EN" "http://www.w3.org/Graphics/SVG/1.1/DTD/svg11.dtd">
<svg version="1.1" id="Layer_1" xmlns="http://www.w3.org/2000/svg" xmlns:xlink="http://www.w3.org/1999/xlink" x="0px" y="0px"
	 width="198px" height="40px" viewBox="0 0 198 40" enable-background="new 0 0 198 40" xml:space="preserve">
<g>
	<path fill="none" d="M183.123,26.088c0.331-0.935,0.452-1.779,0.452-3.256c0-2.11-0.212-3.527-0.693-4.522
		c-0.632-1.327-1.958-1.929-3.192-1.929c-1.325,0-2.56,0.633-3.072,1.628c-0.481,0.935-0.722,2.14-0.722,3.919
		c0,2.11,0.362,3.978,0.933,4.914c0.542,0.904,1.747,1.507,3.042,1.507C181.436,28.349,182.61,27.534,183.123,26.088z"/>
	<path fill="none" d="M77,26.088c0.331-0.935,0.452-1.779,0.452-3.256c0-2.11-0.211-3.527-0.693-4.522
		c-0.632-1.327-1.958-1.929-3.192-1.929c-1.325,0-2.56,0.633-3.072,1.628c-0.482,0.935-0.723,2.14-0.723,3.919
		c0,2.11,0.362,3.978,0.934,4.914c0.542,0.904,1.746,1.507,3.041,1.507C75.314,28.349,76.489,27.534,77,26.088z"/>
	<path fill="none" d="M151.082,25.816c0,1.779,0.872,2.744,2.589,2.744c1.536,0,2.952-0.935,3.644-2.351l0.091-3.919
		c-0.392-0.03-0.753-0.06-1.174-0.06C152.437,22.229,151.082,23.526,151.082,25.816z"/>
	<path fill="none" d="M114.704,28.198c1.023,0,2.168-0.543,2.711-1.327c0.542-0.814,1.054-2.29,1.054-4.823
		c0-1.989-0.241-3.165-0.873-4.039c-0.572-0.814-1.656-1.296-2.831-1.296c-1.475,0-2.951,0.844-3.763,1.96v7.717
		C111.782,27.414,113.288,28.198,114.704,28.198z"/>
	<path fill="#999999" d="M39.149,0H0v40h39.149V0z M20.411,22.602v8.319h-2.646v-8.475L10.886,9.547h3.144l4.046,8.163
		c0.592,1.215,1.09,2.399,1.09,2.399s0.529-1.153,1.151-2.399l4.108-8.163h2.926L20.411,22.602z"/>
	<path fill="#FFFFFF" d="M20.317,17.71c-0.622,1.246-1.151,2.399-1.151,2.399s-0.498-1.184-1.09-2.399L14.03,9.547h-3.144
		l6.879,12.899v8.475h2.646v-8.319l6.94-13.055h-2.926L20.317,17.71z"/>
	<path fill="#999999" d="M59.956,10.955c1.506,0,2.68,0.392,3.915,1.296l1.325-1.598c-1.415-1.085-3.222-1.688-5.21-1.688
		c-4.999,0-8.673,4.522-8.673,10.672c0,3.075,0.723,5.878,2.469,7.867c1.596,1.81,3.794,2.744,6.023,2.744
		c2.048,0,4.095-0.603,5.751-1.688l-1.325-1.658c-1.325,0.934-2.499,1.327-4.035,1.327c-2.349,0-4.487-1.266-5.541-3.859
		c-0.482-1.206-0.663-2.382-0.663-4.371c0-2.442,0.271-4.1,0.873-5.487C55.861,12.191,57.577,10.955,59.956,10.955z"/>
	<path fill="#999999" d="M80.132,22.651c0-2.442-0.452-4.221-1.385-5.577c-1.024-1.477-2.65-2.623-5.149-2.623
		c-3.945,0-6.384,2.984-6.384,7.868c0,4.944,2.349,7.988,6.474,7.988C77.452,30.308,80.132,27.655,80.132,22.651z M70.707,26.842
		c-0.572-0.935-0.934-2.804-0.934-4.914c0-1.779,0.241-2.985,0.723-3.919c0.512-0.995,1.746-1.628,3.072-1.628
		c1.234,0,2.56,0.603,3.192,1.929c0.482,0.995,0.693,2.412,0.693,4.522c0,1.477-0.121,2.321-0.452,3.256
		c-0.512,1.447-1.686,2.261-3.252,2.261C72.453,28.349,71.249,27.745,70.707,26.842z"/>
	<path fill="#999999" d="M103.26,29.916V18.582c0-2.382-1.535-4.07-3.764-4.07c-1.535,0-3.372,0.965-4.818,2.502
		c-0.542-1.598-2.017-2.502-3.493-2.502c-1.536,0-3.373,1.146-4.366,2.261c0-1.055-0.542-2.231-0.542-2.231l-2.288,0.543
		c0,0,0.542,1.025,0.542,3.195v11.636h2.258V18.702c1.566-1.417,2.68-1.99,3.825-1.99c0.693,0,1.174,0.181,1.536,0.603
		c0.331,0.422,0.422,1.025,0.422,1.929v10.672h2.379V18.943c1.566-1.447,2.62-2.321,3.975-2.321c1.265,0,1.927,0.754,1.927,2.201
		v11.094H103.26z"/>
	<path fill="#999999" d="M108.23,29.916h2.349c0.301-0.603,0.361-0.995,0.422-1.628c0.843,1.116,2.56,1.99,4.125,1.99
		c3.584,0,5.962-3.256,5.962-8.079c0-4.703-2.228-7.627-5.811-7.627c-1.596,0-2.831,0.573-4.306,2.02c0,0,0.06-0.904,0.06-1.658
		v-3.497c0-2.291-0.391-3.557-0.391-3.557l-2.349,0.452c0,0,0.391,1.115,0.391,3.075v14.772
		C108.681,28.198,108.56,29.193,108.23,29.916z M111,18.672c0.813-1.115,2.288-1.96,3.763-1.96c1.175,0,2.259,0.482,2.831,1.296
		c0.632,0.874,0.873,2.05,0.873,4.039c0,2.533-0.512,4.01-1.054,4.823c-0.542,0.784-1.687,1.327-2.711,1.327
		c-1.416,0-2.921-0.784-3.704-1.809V18.672z"/>
	<polygon fill="#999999" points="125.485,29.916 127.924,29.916 127.924,14.572 125.485,14.964 	"/>
	<path fill="#999999" d="M128.587,10.261c0-1.025-0.813-1.839-1.837-1.839c-1.023,0-1.836,0.844-1.836,1.869
		c0,0.995,0.813,1.809,1.836,1.809C127.774,12.1,128.587,11.286,128.587,10.261z"/>
	<path fill="#999999" d="M144.365,29.916V18.521c0-0.603-0.121-1.206-0.361-1.749c-0.603-1.326-2.048-2.201-3.674-2.201
		c-1.596,0-3.161,0.754-4.728,2.321c0-1.236-0.542-2.351-0.542-2.351l-2.288,0.633c0,0,0.572,1.025,0.572,3.165v11.576h2.289V18.732
		c1.084-1.146,2.951-2.11,4.155-2.11c0.693,0,1.325,0.241,1.657,0.633c0.422,0.513,0.542,0.904,0.542,2.502v10.159H144.365z"/>
	<path fill="#999999" d="M156.412,20.632c-5.029,0-7.95,1.989-7.95,5.395c0,2.02,1.115,4.281,4.818,4.281
		c1.716,0,2.891-0.572,4.337-2.02c0.271,1.055,1.023,1.869,2.047,2.201l1.205-1.689c-1.114-0.603-1.265-1.236-1.205-3.677
		l0.121-4.944c0.03-1.357,0-2.502-0.331-3.316c-0.632-1.538-2.077-2.352-4.155-2.352c-2.167,0-4.305,0.693-6.293,2.02l1.174,1.688
		c0.964-0.874,3.102-1.779,4.788-1.779c0.934,0,1.536,0.271,2.018,0.814c0.422,0.482,0.481,1.025,0.481,2.351v1.055
		C157.466,20.661,157.044,20.632,156.412,20.632z M157.315,26.209c-0.692,1.416-2.108,2.351-3.644,2.351
		c-1.716,0-2.589-0.965-2.589-2.744c0-2.29,1.355-3.587,5.149-3.587c0.422,0,0.782,0.029,1.174,0.06L157.315,26.209z"/>
	<path fill="#999999" d="M165.416,11.105c0,0-0.241,2.351-0.241,3.798h-1.957v1.779h1.957v10.31c0,1.507,0.392,2.472,1.446,2.984
		c0.572,0.272,1.174,0.423,1.958,0.423c1.054,0,1.897-0.212,2.65-0.604l-0.331-1.507c-0.422,0.211-0.814,0.301-1.475,0.301
		c-1.476,0-1.927-0.572-1.927-2.231v-9.677h3.131l0.723-1.779h-3.764c0-1.99,0.301-4.341,0.301-4.341L165.416,11.105z"/>
	<path fill="#999999" d="M186.254,22.651c0-2.442-0.451-4.221-1.385-5.577c-1.023-1.477-2.65-2.623-5.148-2.623
		c-3.946,0-6.385,2.984-6.385,7.868c0,4.944,2.349,7.988,6.475,7.988C183.575,30.308,186.254,27.655,186.254,22.651z
		 M176.829,26.842c-0.572-0.935-0.933-2.804-0.933-4.914c0-1.779,0.241-2.985,0.722-3.919c0.513-0.995,1.747-1.628,3.072-1.628
		c1.234,0,2.56,0.603,3.192,1.929c0.481,0.995,0.693,2.412,0.693,4.522c0,1.477-0.121,2.321-0.452,3.256
		c-0.513,1.447-1.687,2.261-3.253,2.261C178.576,28.349,177.371,27.745,176.829,26.842z"/>
	<path fill="#999999" d="M192.971,16.954c0.09-1.266-0.482-2.442-0.482-2.442l-2.349,0.633c0,0,0.512,0.995,0.512,3.195v11.576
		h2.349v-9.405c0-1.236,0.181-1.688,0.873-2.382c0.693-0.693,1.596-1.085,2.5-1.085c0.241,0,0.512,0.06,0.663,0.121L198,14.602
		c0,0-0.422-0.151-0.814-0.151C195.651,14.452,194.054,15.416,192.971,16.954z"/>
</g>
</svg>
